<?xml version="1.0" standalone="no"?>
<!DOCTYPE svg PUBLIC "-//W3C//DTD SVG 20010904//EN"
 "http://www.w3.org/TR/2001/REC-SVG-20010904/DTD/svg10.dtd">
<svg version="1.0" xmlns="http://www.w3.org/2000/svg"
 width="640.000000pt" height="640.000000pt" viewBox="0 0 640.000000 640.000000"
 preserveAspectRatio="xMidYMid meet">
<metadata>
Created by potrace 1.11, written by Peter Selinger 2001-2013
</metadata>
<g transform="translate(0.000000,640.000000) scale(0.100000,-0.100000)"
fill="#000000" stroke="none">
<path d="M0 3200 l0 -3200 3200 0 3200 0 0 3200 0 3200 -3200 0 -3200 0 0
-3200z m6270 -5 l0 -3075 -3075 0 -3075 0 0 3075 0 3075 3075 0 3075 0 0
-3075z"/>
<path d="M220 3195 l0 -2975 2975 0 2975 0 0 2975 0 2975 -2975 0 -2975 0 0
-2975z m1504 2705 c43 -16 103 -78 125 -131 32 -73 45 -206 32 -313 -22 -180
-102 -276 -228 -276 -98 1 -170 60 -210 173 -14 41 -18 83 -18 192 0 155 13
211 64 283 50 68 158 102 235 72z m1386 -9 c45 -23 76 -69 89 -133 6 -28 10
-52 8 -54 -1 -2 -33 -6 -70 -10 -57 -6 -67 -5 -67 9 0 9 -5 28 -12 42 -23 51
-98 40 -98 -14 0 -36 9 -43 94 -77 120 -48 166 -115 166 -240 -1 -79 -34 -158
-83 -198 -32 -26 -48 -31 -105 -34 -122 -6 -187 49 -214 182 -6 31 -9 58 -7
61 3 2 35 7 72 11 l67 7 0 -27 c0 -40 27 -85 55 -92 39 -10 75 19 75 60 0 56
-9 66 -89 102 -42 19 -87 45 -100 57 -99 92 -74 301 44 353 45 20 134 17 175
-5z m460 0 c45 -23 76 -69 89 -133 6 -28 10 -52 8 -54 -1 -2 -33 -6 -70 -10
-57 -6 -67 -5 -67 9 0 9 -5 28 -12 42 -23 51 -98 40 -98 -14 0 -36 9 -43 94
-77 120 -48 166 -115 166 -240 -1 -79 -34 -158 -83 -198 -32 -26 -48 -31 -105
-34 -122 -6 -187 49 -214 182 -6 31 -9 58 -7 61 3 2 35 7 72 11 l67 7 0 -27
c0 -40 27 -85 55 -92 39 -10 75 19 75 60 0 56 -9 66 -89 102 -42 19 -87 45
-100 57 -99 92 -74 301 44 353 45 20 134 17 175 -5z m714 9 c43 -16 103 -78
125 -131 32 -73 45 -206 32 -313 -22 -180 -102 -276 -228 -276 -98 1 -170 60
-210 173 -14 41 -18 83 -18 192 0 155 13 211 64 283 50 68 158 102 235 72z
m-3454 -35 c92 -88 73 -331 -30 -386 -22 -12 -55 -19 -92 -19 l-58 0 0 -135 0
-135 -75 0 -75 0 0 356 0 355 149 -3 150 -3 31 -30z m479 1 c39 -38 55 -85 54
-166 0 -83 -29 -152 -74 -179 -28 -17 -30 -21 -15 -27 23 -9 58 -81 90 -187
15 -48 29 -94 32 -102 5 -13 -7 -15 -74 -15 l-80 0 -41 123 c-44 130 -63 167
-87 167 -11 0 -14 -25 -14 -145 l0 -145 -70 0 -70 0 0 356 0 355 159 -3 160
-3 30 -29z m1001 -46 l0 -80 -100 0 -100 0 0 -60 0 -60 85 0 85 0 0 -70 0 -70
-85 0 -85 0 0 -145 0 -145 -70 0 -70 0 0 355 0 355 170 0 170 0 0 -80z m450 0
l0 -80 -115 0 -115 0 0 -55 0 -55 105 0 105 0 0 -70 0 -70 -105 0 -105 0 0
-70 0 -70 120 0 120 0 0 -80 0 -80 -195 0 -195 0 0 355 0 355 190 0 190 0 0
-80z m1130 -275 l0 -355 -70 0 -70 0 0 355 0 355 70 0 70 0 0 -355z m841 163
l84 -193 3 193 2 192 65 0 65 0 0 -355 0 -355 -67 0 -68 0 -80 187 -80 186 -3
-186 -2 -187 -65 0 -65 0 0 355 0 355 64 0 63 0 84 -192z m666 -158 c45 -190
83 -348 83 -352 0 -5 -33 -8 -74 -8 l-74 0 -7 48 c-10 72 -12 73 -96 70 l-74
-3 -10 -55 -10 -55 -73 -3 c-71 -3 -73 -2 -67 20 39 166 157 657 161 671 5 15
16 17 82 15 l77 -3 82 -345z m273 80 l0 -270 105 0 105 0 0 -85 0 -85 -175 0
-175 0 0 355 0 355 70 0 70 0 0 -270z m230 -2490 l0 -1780 -2695 0 -2695 0 0
1780 0 1780 2695 0 2695 0 0 -1780z m-2832 -2054 c65 -21 126 -78 143 -135 7
-23 10 -43 8 -45 -2 -2 -57 -7 -121 -11 l-118 -7 -9 25 c-28 72 -186 91 -207
25 -10 -33 16 -47 137 -73 217 -46 291 -81 329 -154 56 -111 -8 -237 -150
-293 -47 -19 -75 -22 -200 -22 -173 -1 -238 15 -302 72 -40 36 -88 120 -88
153 0 14 19 18 121 24 66 4 121 5 122 3 1 -1 11 -21 22 -43 27 -55 74 -78 144
-71 37 3 61 12 77 27 30 28 30 50 2 76 -24 22 -50 31 -188 62 -152 35 -237 86
-261 158 -35 107 52 211 201 243 68 14 276 5 338 -14z m-2185 -78 c80 -263
100 -321 106 -307 4 8 34 101 66 207 l59 192 173 0 173 0 0 -350 0 -350 -110
0 -110 0 -1 253 -1 252 -40 -125 c-22 -69 -57 -183 -79 -253 l-40 -128 -97 3
-97 3 -75 248 -75 247 -3 -250 -2 -250 -110 0 -110 0 0 350 0 350 173 0 172 0
28 -92z m1413 -256 c85 -189 154 -345 154 -348 0 -2 -60 -4 -134 -4 l-134 0
-22 60 -23 61 -145 -3 -145 -3 -20 -57 -19 -58 -134 0 -134 0 23 53 c13 28 84
186 157 350 l133 298 145 -3 144 -3 154 -343z m1814 268 l0 -80 -130 0 -130 0
0 -270 0 -270 -130 0 -130 0 0 270 0 270 -130 0 -130 0 0 80 0 80 390 0 390 0
0 -80z m810 0 l0 -80 -215 0 -215 0 0 -55 0 -55 200 0 200 0 0 -70 0 -70 -200
0 -200 0 0 -65 0 -65 220 0 220 0 0 -80 0 -80 -355 0 -355 0 0 350 0 350 350
0 350 0 0 -80z m795 57 c79 -36 118 -92 118 -172 0 -84 -49 -150 -137 -184
l-48 -18 30 -12 c16 -7 45 -29 64 -49 30 -31 111 -154 149 -224 9 -17 2 -18
-138 -17 l-148 0 -80 126 c-81 126 -109 153 -165 153 -19 0 -20 -6 -20 -140
l0 -140 -130 0 -130 0 0 351 0 351 298 -4 c258 -3 302 -6 337 -21z"/>
<path d="M1605 5726 c-32 -32 -45 -85 -45 -181 0 -96 13 -149 45 -181 51 -51
117 -13 132 74 11 69 8 191 -6 234 -14 41 -53 78 -83 78 -10 0 -30 -11 -43
-24z"/>
<path d="M4165 5726 c-32 -32 -45 -85 -45 -181 0 -96 13 -149 45 -181 51 -51
117 -13 132 74 11 69 8 191 -6 234 -14 41 -53 78 -83 78 -10 0 -30 -11 -43
-24z"/>
<path d="M650 5680 l0 -80 30 0 c43 0 70 31 70 80 0 49 -27 80 -70 80 l-30 0
0 -80z"/>
<path d="M1100 5684 l0 -77 45 5 c60 7 75 21 75 74 0 55 -19 74 -76 74 l-44 0
0 -76z"/>
<path d="M5211 5593 c-11 -60 -21 -114 -21 -120 0 -9 16 -13 45 -13 25 0 45 3
45 7 0 10 -42 228 -45 231 -1 1 -12 -46 -24 -105z"/>
<path d="M4265 4524 c-418 -46 -710 -247 -880 -606 -139 -293 -181 -758 -105
-1153 78 -402 327 -742 633 -865 242 -97 617 -118 885 -49 311 79 544 322 661
691 17 53 33 115 37 136 l6 39 -298 101 c-165 56 -305 103 -313 104 -9 2 -21
-25 -37 -87 -55 -204 -148 -338 -269 -385 -78 -31 -243 -35 -320 -7 -102 35
-191 127 -234 241 -47 126 -56 205 -56 486 0 242 2 273 23 354 31 123 81 213
158 285 87 82 148 105 279 105 94 1 105 -1 167 -32 110 -54 180 -134 223 -258
18 -50 29 -69 41 -67 35 3 599 146 608 154 12 10 -44 170 -96 273 -184 367
-463 532 -918 541 -85 2 -173 1 -195 -1z"/>
<path d="M981 3165 l0 -1315 364 0 365 0 0 484 0 484 298 4 c278 5 303 7 393
31 283 75 452 246 524 532 46 180 43 418 -6 597 -51 181 -173 340 -319 411
-41 21 -111 47 -155 59 -79 22 -93 22 -771 26 l-692 3 -1 -1316z m1110 751
c158 -58 219 -287 117 -441 -59 -89 -166 -125 -375 -125 l-123 0 0 296 0 296
168 -5 c122 -3 179 -9 213 -21z"/>
<path d="M1951 798 c-23 -62 -41 -116 -41 -120 0 -5 38 -8 85 -8 47 0 85 3 85
8 0 8 -80 225 -84 230 -2 1 -22 -48 -45 -110z"/>
<path d="M5340 885 l0 -78 90 5 c109 7 140 22 140 72 0 56 -27 70 -136 74
l-94 4 0 -77z"/>
</g>
</svg>
